#!OML:ASF H:\Dans Jumps\Project 1\Capture day 1\Session 1\subject.ASF
:FULLY-SPECIFIED
:DEGREES
223
root 0.670435 14.6885 -16.8421 29.9354 -0.270068 -1.58518
lowerback 27.7915 0.462167 -1.29686
upperback 5.31157 0.468095 2.25751
thorax -9.4655 0.280395 3.12209
lowerneck -20.4169 -0.0547632 -2.47234
upperneck -3.02916 0.514457 -0.641024
head 2.53951 0.242911 0.270321
rclavicle 2.18663e-015 1.63997e-014
rhumerus -56.0685 -14.0822 -63.3333
rradius 26.9678
rwrist 25.9802
rhand -17.0852 -22.5648
rfingers 7.12502
rthumb 9.15315 -52.3462
lclavicle 2.18663e-015 1.63997e-014
lhumerus -54.5416 -0.74477 82.9247
lradius 20.4935
lwrist 16.5152
lhand -25.8493 -4.67071
lfingers 7.12502
lthumb 0.69134 25.3079
rfemur -79.6411 -2.32756 22.4748
rtibia 74.7661
rfoot -29.1917 -13.6304
rtoes 1.83266
lfemur -80.3206 6.69231 -23.4585
ltibia 73.5503
lfoot -22.9071 19.2166
ltoes -12.8952
224
root 0.664685 14.6029 -16.8589 30.4042 -0.212994 -1.53739
lowerback 28.2598 0.51388 -1.35981
upperback 5.22838 0.516957 2.26901
thorax -9.7995 0.310448 3.16101
lowerneck -20.4439 -0.0885607 -2.44315
upperneck -3.40286 0.458256 -0.635212
head 2.41285 0.219154 0.261199
rclavicle 4.07509e-015 -2.61402e-014
rhumerus -57.1111 -14.1538 -62.7181
rradius 26.8595
rwrist 26.0518
rhand -17.0262 -22.5162
rfingers 7.12502
rthumb 9.21009 -52.295
lclavicle 4.07509e-015 -2.61402e-014
lhumerus -55.413 -0.293663 82.5217
lradius 20.1953
lwrist 16.3795
lhand -25.6326 -4.67609
lfingers 7.12502
lthumb 0.900625 25.3017
rfemur -80.841 -2.15963 22.3581
rtibia 75.7785
rfoot -29.482 -13.9589
rtoes 2.09096
lfemur -81.5068 6.46152 -23.4429
ltibia 74.5176
lfoot -23.0176 19.5883
ltoes -12.8019
225
root 0.658852 14.5181 -16.8737 30.8493 -0.16088 -1.48399
lowerback 28.7463 0.569914 -1.42733
upperback 5.14994 0.568902 2.27937
thorax -10.1377 0.342202 3.19999
lowerneck -20.4583 -0.122173 -2.4164
upperneck -3.77513 0.402464 -0.62405
head 2.2848 0.195728 0.254397
rclavicle -1.88845e-015 2.05742e-014
rhumerus -58.1092 -14.2404 -62.0939
rradius 26.7199
rwrist 26.1379
rhand -16.9858 -22.444
rfingers 7.12502
rthumb 9.24901 -52.2212
lclavicle -1.88845e-015 2.05742e-014
lhumerus -56.2272 0.161408 82.0965
lradius 19.8623
lwrist 16.1967
lhand -25.5256 -4.76098
lfingers 7.12502
lthumb 1.00398 25.2164
rfemur -81.9983 -1.98455 22.2245
rtibia 76.7707
rfoot -29.7704 -14.2376
rtoes 2.32242
lfemur -82.6458 6.22738 -23.4221
ltibia 75.4654
lfoot -23.1386 19.9252
ltoes -12.7079
226
root 0.653152 14.435 -16.8861 31.2483 -0.117533 -1.4344
lowerback 29.2771 0.632031 -1.49463
upperback 5.07951 0.627381 2.29003
thorax -10.4895 0.377148 3.23677
lowerneck -20.4573 -0.157884 -2.39791
upperneck -4.14817 0.345125 -0.601367
head 2.15415 0.171975 0.252789
rclavicle -3.97569e-016 -6.95746e-016
rhumerus -59.0579 -14.3242 -61.4834
rradius 26.5632
rwrist 26.2132
rhand -16.9603 -22.3827
rfingers 7.12502
rthumb 9.27369 -52.1587
lclavicle -3.97569e-016 -6.95746e-016
lhumerus -56.985 0.604902 81.6675
lradius 19.5063
lwrist 15.9598
lhand -25.5057 -4.89436
lfingers 7.12502
lthumb 1.02312 25.0829
rfemur -83.082 -1.80031 22.0847
rtibia 77.7362
rfoot -30.0489 -14.4893
rtoes 2.49748
lfemur -83.7096 6.00461 -23.3904
ltibia 76.3913
lfoot -23.2733 20.234
ltoes -12.6241
227
root 0.647492 14.3536 -16.8964 31.6021 -0.0729574 -1.38537
lowerback 29.8448 0.696251 -1.55987
upperback 5.02129 0.688272 2.30439
thorax -10.8459 0.413203 3.2754
lowerneck -20.4434 -0.198775 -2.39557
upperneck -4.52551 0.283906 -0.561975
head 2.02021 0.147028 0.25925
rclavicle 4.67144e-015 1.83876e-014
rhumerus -59.9332 -14.3997 -60.902
rradius 26.3809
rwrist 26.272
rhand -16.9776 -22.3516
rfingers 7.12502
rthumb 9.25693 -52.1284
lclavicle 4.67144e-015 1.83876e-014
lhumerus -57.6794 1.00854 81.2781
lradius 19.1377
lwrist 15.669
lhand -25.5991 -5.05751
lfingers 7.12502
lthumb 0.932918 24.9202
rfemur -84.0941 -1.62033 21.945
rtibia 78.6737
rfoot -30.3039 -14.7401
rtoes 2.60998
lfemur -84.7023 5.79059 -23.3518
ltibia 77.2934
lfoot -23.4094 20.5121
ltoes -12.5354
228
root 0.64205 14.2741 -16.9047 31.9137 -0.0260485 -1.34636
lowerback 30.4484 0.760477 -1.61183
upperback 4.97168 0.752364 2.32178
thorax -11.2101 0.450329 3.30826
lowerneck -20.4342 -0.241813 -2.39964
upperneck -4.88858 0.22167 -0.513431
head 1.89253 0.121665 0.269879
rclavicle -9.54166e-015 8.94531e-015
rhumerus -60.7302 -14.4645 -60.3635
rradius 26.1737
rwrist 26.3315
rhand -17.0364 -22.3444
rfingers 7.12502
rthumb 9.20021 -52.1237
lclavicle -9.54166e-015 8.94531e-015
lhumerus -58.2959 1.40891 80.8783
lradius 18.7589
lwrist 15.322
lhand -25.5509 -5.12631
lfingers 7.12502
lthumb 0.979539 24.8512
rfemur -85.0333 -1.44998 21.8207
rtibia 79.5829
rfoot -30.5476 -14.9761
rtoes 2.75948
lfemur -85.6293 5.5946 -23.303
ltibia 78.1714
lfoot -23.5423 20.7582
ltoes -12.4387
229
root 0.636967 14.1971 -16.9106 32.174 0.0255381 -1.32169
lowerback 31.2497 0.82411 -1.63717
upperback 4.51852 0.822498 2.46357
thorax -11.3233 0.459462 3.20714
lowerneck -20.4263 -0.282288 -2.40002
upperneck -5.23779 0.162627 -0.471077
head 1.7703 0.0973169 0.278189
rclavicle -3.97569e-015 -7.15625e-015
rhumerus -61.4391 -14.528 -59.8654
rradius 25.9298
rwrist 26.4345
rhand -17.1493 -22.3688
rfingers 7.12502
rthumb 9.09128 -52.1528
lclavicle -3.97569e-015 -7.15625e-015
lhumerus -58.8331 1.79131 80.4933
lradius 18.3693
lwrist 14.9058
lhand -25.4543 -5.14723
lfingers 7.12502
lthumb 1.07275 24.8298
rfemur -85.8836 -1.29537 21.7215
rtibia 80.4603
rfoot -30.7799 -15.2044
rtoes 2.95599
lfemur -86.4764 5.42171 -23.242
ltibia 79.0227
lfoot -23.6728 20.9724
ltoes -12.343
230
root 0.631891 14.1229 -16.9143 32.3951 0.0914965 -1.31068
lowerback 31.9373 0.879954 -1.64577
upperback 4.45692 0.889535 2.49563
thorax -11.6847 0.493904 3.21901
lowerneck -20.4159 -0.319603 -2.39894
upperneck -5.57555 0.107927 -0.438101
head 1.65192 0.0745501 0.283613
rclavicle -9.93923e-016 -9.93923e-017
rhumerus -62.05 -14.59 -59.4132
rradius 25.6525
rwrist 26.5835
rhand -17.2963 -22.3998
rfingers 7.12502
rthumb 8.94947 -52.19
lclavicle -9.93923e-016 -9.93923e-017
lhumerus -59.2786 2.16996 80.1109
lradius 17.9577
lwrist 14.3962
lhand -25.2789 -5.13173
lfingers 7.12502
lthumb 1.24216 24.8444
rfemur -86.6581 -1.1656 21.6564
rtibia 81.3045
rfoot -30.9948 -15.4296
rtoes 3.19191
lfemur -87.2581 5.27097 -23.1716
ltibia 79.8447
lfoot -23.7939 21.1485
ltoes -12.2342
231
root 0.626761 14.0519 -16.9157 32.5786 0.172834 -1.30751
lowerback 32.6577 0.927956 -1.63411
upperback 4.39655 0.953933 2.53276
thorax -12.0549 0.526153 3.22562
lowerneck -20.3995 -0.349308 -2.38672
upperneck -5.90274 0.0613184 -0.429625
head 1.53639 0.0546325 0.279829
rclavicle -6.75868e-015 -6.75868e-015
rhumerus -62.5583 -14.6634 -58.9903
rradius 25.3328
rwrist 26.8389
rhand -17.4418 -22.4212
rfingers 7.12502
rthumb 8.80901 -52.2174
lclavicle -6.75868e-015 -6.75868e-015
lhumerus -59.6358 2.53178 79.748
lradius 17.5365
lwrist 13.8234
lhand -25.1027 -5.09531
lfingers 7.12502
lthumb 1.41233 24.8798
rfemur -87.3563 -1.06864 21.6241
rtibia 82.1129
rfoot -31.1946 -15.643
rtoes 3.4672
lfemur -87.9715 5.14215 -23.1021
ltibia 80.6357
lfoot -23.9114 21.2963
ltoes -12.1327
232
root 0.621454 13.9843 -16.9146 32.7324 0.268371 -1.3109
lowerback 33.3985 0.96858 -1.60501
upperback 4.33417 1.01603 2.57471
thorax -12.4319 0.556435 3.22833
lowerneck -20.3664 -0.371884 -2.36384
upperneck -6.22592 0.0217049 -0.447318
head 1.41959 0.0371095 0.266305
rclavicle 5.36719e-015 -1.09332e-015
rhumerus -62.9657 -14.7597 -58.5825
rradius 24.9732
rwrist 27.2233
rhand -17.551 -22.4293
rfingers 7.12502
rthumb 8.7036 -52.2298
lclavicle 5.36719e-015 -1.09332e-015
lhumerus -59.8984 2.90785 79.3723
lradius 17.0939
lwrist 13.1524
lhand -24.8704 -5.04676
lfingers 7.12502
lthumb 1.63671 24.9267
rfemur -87.9879 -1.00575 21.6283
rtibia 82.8819
rfoot -31.368 -15.8576
rtoes 3.69882
lfemur -88.6229 5.03747 -23.0381
ltibia 81.3938
lfoot -24.0295 21.4207
ltoes -12.0605
233
root 0.616606 13.9188 -16.9112 32.8887 0.3492 -1.33008
lowerback 34.1163 1.01244 -1.56786
upperback 4.26965 1.08559 2.61534
thorax -12.7988 0.589172 3.22187
lowerneck -20.3247 -0.391581 -2.3369
upperneck -6.54961 -0.0151934 -0.480824
head 1.30144 0.0203664 0.247285
rclavicle 9.34288e-015 -3.97569e-015
rhumerus -63.2607 -14.9034 -58.1729
rradius 24.5647
rwrist 27.7527
rhand -17.6268 -22.4215
rfingers 7.12502
rthumb 8.63049 -52.2251
lclavicle 9.34288e-015 -3.97569e-015
lhumerus -60.0671 3.26335 79.0177
lradius 16.6514
lwrist 12.4539
lhand -24.5566 -4.98331
lfingers 7.12502
lthumb 1.93978 24.9876
rfemur -88.5987 -0.958021 21.6682
rtibia 83.6107
rfoot -31.5058 -16.0581
rtoes 3.85841
lfemur -89.2562 4.97651 -22.9899
ltibia 82.1242
lfoot -24.145 21.5346
ltoes -12.0067
234
root 0.611518 13.8575 -16.9043 33.0185 0.433792 -1.35062
lowerback 34.8352 1.0531 -1.52646
upperback 4.20959 1.15354 2.65743
thorax -13.1575 0.620413 3.21482
lowerneck -20.2839 -0.414365 -2.31526
upperneck -6.87208 -0.0551967 -0.515325
head 1.18425 0.00209821 0.228803
rclavicle 1.98785e-016 -8.84592e-015
rhumerus -63.4383 -15.1047 -57.7524
rradius 24.1127
rwrist 28.3964
rhand -17.6275 -22.3821
rfingers 7.12502
rthumb 8.62981 -52.1857
lclavicle 1.98785e-016 -8.84592e-015
lhumerus -60.1313 3.62544 78.6552
lradius 16.1976
lwrist 11.7115
lhand -24.1692 -4.94479
lfingers 7.12502
lthumb 2.31397 25.0224
rfemur -89.1376 -0.941574 21.7369
rtibia 84.2967
rfoot -31.6401 -16.2359
rtoes 3.98511
lfemur -89.8201 4.9475 -22.962
ltibia 82.8185
lfoot -24.2726 21.6446
ltoes -11.9472
235
root 0.606054 13.8001 -16.8937 33.138 0.515539 -1.37252
lowerback 35.5273 1.09332 -1.48851
upperback 4.15711 1.22035 2.69896
thorax -13.4935 0.650586 3.20908
lowerneck -20.2597 -0.442916 -2.29554
upperneck -7.18772 -0.102177 -0.548025
head 1.07254 -0.0197401 0.210941
rclavicle -5.1684e-015 -8.05078e-015
rhumerus -63.4844 -15.372 -57.326
rradius 23.6139
rwrist 29.1146
rhand -17.5655 -22.3298
rfingers 7.12502
rthumb 8.68964 -52.1309
lclavicle -5.1684e-015 -8.05078e-015
lhumerus -60.0813 3.98292 78.3003
lradius 15.7405
lwrist 10.9657
lhand -23.7365 -4.92403
lfingers 7.12502
lthumb 2.73179 25.0382
rfemur -89.6236 -0.949296 21.8312
rtibia 84.94
rfoot -31.7688 -16.3896
rtoes 4.08119
lfemur -90.3339 4.9554 -22.9594
ltibia 83.4768
lfoot -24.4065 21.754
ltoes -11.8682
